<?xml version="1.0" encoding="utf-8"?>
<svg version="1.1" id="Layer_1" xmlns="http://www.w3.org/2000/svg" xmlns:xlink="http://www.w3.org/1999/xlink" x="0px" y="0px"
	 viewBox="0 0 1000 1000" style="enable-background:new 0 0 1000 1000;" xml:space="preserve">
<g>
	<g>
		<path d="M36.57,318.74c6.71-41.82,29.7-81.19,64.29-104.44c3.92-2.64,7.98-5.08,12.15-7.31c2.16-1.15,4.35-2.25,6.58-3.29
			c2.8-1.3,3.25-1.47,5.69-2.4c8.75-3.32,19.92-6.05,27.33-6.74c10.9-1.01,21.94-0.57,32.45,2.69c10.45,3.25,17.34,8.54,24.1,16.26
			c2.7,3.08,4.63,5.88,7.19,10.2c2.12,3.59,4.82,8.95,5.97,11.65c4.28,10.07,7.15,20.8,9.4,31.49c4.9,23.2,6.3,46.56,8.04,70.66
			c4.3,59.45,6.78,119.04,7.42,178.64c0.59,54.82-0.52,109.82-7.29,164.28c-6.38,51.26-18.1,103.25-39.68,150.39
			c-4.34,9.48-9.28,19.08-16.62,26.14c-2.75,2.64-6.01,4.73-9.32,5.63c-3.2,0.87-8.66,0-13.16-2.39
			c-18.39-9.8-30.65-28.36-39.53-46.45c-19.73-40.21-23.65-87.97-25.28-132.58c-4.16-114.28,9.42-229.21,41.04-339.14
			c12.97-45.1,29.63-90.28,57.22-128.68c12.19-16.97,27.5-32.75,44.83-44.08c21.68-14.17,46.44-21.77,71.74-26.43
			c25.57-4.71,52.95-8.21,78.87-4.55c22.44,3.17,42.21,11.96,57.86,28.16c15.85,16.41,23.62,38.03,22.92,61.25
			c-0.79,26.45-11.09,52.06-21.41,76.07c-11.61,27.01-23.13,54.04-33.91,81.4c-10.17,25.8-21.06,51.82-27.53,78.85
			c-6.37,26.61-8.03,54.91,3.03,80.52c9.5,22,28.29,38.45,50.6,46.68c50.42,18.59,106-13.99,141.9-47.58
			c9.11-8.52,17.49-17.78,25.18-27.6c8.28-10.58,16.44-21.64,22.07-33.91c5.86-12.78,9.07-26.43,6.54-40.47
			c-1.97-10.95-8.22-21.58-16.78-28.68c-18.44-15.3-43.62-15.27-60.95,1.84c-17.06,16.83-22.77,43.84-15.95,66.51
			c6.8,22.61,25.06,42.29,48.39,47.92c26.76,6.45,53.49-4.65,74.33-21.03c20.17-15.85,35.51-36.72,51.8-56.3
			c-6.28-4.85-12.56-9.69-18.85-14.54c-8.14,12.55-15.13,25.91-17.09,40.92c-1.81,13.91,1.77,28.41,11,39.17
			c10.16,11.85,25.96,13.2,39.35,6.23c6.65-3.46,12.38-8.7,18.03-13.56c6.31-5.43,12.59-10.89,18.83-16.41
			c13.96-12.34,27.72-24.9,41.29-37.67c4.32-4.06,4.53-11.25,0.94-15.76c-3.41-4.28-10.58-6.67-15.48-3.09
			c-8.85,6.46-11.83,16.85-7.94,27.19c3.78,10.06,12.39,18.14,23.61,18.11c12.21-0.03,21.71-8.12,30.58-15.48
			c3.23-2.68,6.61-4.66,10.42-6.07c4.71-1.75,1.3-0.17,1.18-0.17c-1.3,0,1.56,0.51,0.85,0.15c-0.7-0.35-0.51-0.02,0.39,0.31
			c0.9,1.01,0.93,0.99,0.1-0.07c0.19,0.29,0.39,0.58,0.58,0.87c0.51,0.95,1.06,1.86,1.54,2.82c-0.22-0.45-0.72-2.05,0.09,0.22
			c0.65,1.82,1.25,3.65,1.8,5.5c1.1,3.7,2.04,7.46,3.41,11.08c3.43,9.07,9.02,17.48,18.93,20.18c9.68,2.63,18.65-1.86,26.49-7.09
			c3.26-2.17,6.55-4.73,10.2-6.21c-1.68,0.68,0.22,0.07,0.47-0.04c0.38-0.09,0.75-0.19,1.13-0.28c-1.37,0.12-1.21,0.14,0.48,0.06
			c-0.55-0.14-1.64-0.5,0.82,0.18c1.76,0.49,0.63,0.13,2.16,1.01c9.11,5.27,14.99,15.91,24.65,21.34
			c11.32,6.37,26.4,7.42,35.44-3.43c4.15-4.98,4.87-12.1,0-16.97c-4.27-4.27-12.8-5-16.97,0c-0.54,0.64-1.13,1.45-1.82,1.97
			c-0.13,0.1,1.09-0.89,1.06-0.72c-0.39,0.1-0.77,0.19-1.16,0.29c1-0.16,1.06-0.22,0.18-0.19c-2.05-0.13,1.54,0.33-0.57-0.08
			c-1.84-0.36-1.75-0.35-3.44-1.26c-1.69-0.91-3.56-2.17-4.51-3.01c-6.87-6.03-12.28-13.36-20.15-18.28
			c-9-5.63-19.2-6.02-28.79-1.79c-6.48,2.86-11.87,7.53-18.1,10.83c-2.2,1.17-0.72,0.25-0.25,0.11c-0.68,0.2-1.38,0.44-2.08,0.55
			c2.38-0.39,0.56-0.29,0.05-0.22c-0.48,0.07,2.09,0.14,1.83,0.5c0.04-0.06-2.87-1.5-1.22-0.67c1.42,0.71-0.64-1.27,0.11,0.08
			c0.74,1.34-0.33-0.5-0.51-0.82c-0.43-0.75-0.84-1.51-1.23-2.29c1.05,2.05-0.77-2.18-0.98-2.81c-0.48-1.47-0.91-2.96-1.34-4.45
			c-0.97-3.36-1.89-6.73-3.15-9.99c-3.37-8.74-8.51-16.5-17.71-19.85c-9.88-3.59-20.77-0.19-29.18,5.43
			c-4.48,2.99-8.35,6.72-12.62,9.98c-1.86,1.43-3.89,2.88-6.02,3.87c-0.52,0.24-3.45,1.09-3.13,0.9c0.24,0.08,0.49,0.15,0.73,0.23
			c-0.32-0.08-0.63-0.16-0.95-0.25c1.33,0.6,1.38,0.57,0.17-0.11c0.26,0.2,0.53,0.39,0.79,0.59c-0.51-0.48-1.04-1-1.47-1.55
			c1.44,1.84-0.39-1.04-0.49-1.26c0.2,0.43,0.86,2,0.04-0.2c-0.92-2.46,0.3,1.74-0.16-0.95c0.13,0.78-0.96,1.99-0.03,0.28
			c-0.64,1.17-1.06,1.82-2.19,2.64c-4.85-6.28-9.69-12.56-14.54-18.85c-12.64,11.88-25.44,23.6-38.41,35.11
			c-6.71,5.95-13.46,11.86-20.25,17.71c-4.85,4.18-9.97,9.45-16.08,11.7c-2.6,0.96-2.94,1.06-5.36,0.14
			c2.44,0.93-2.11-1.55-1.09-0.76c0.32,0.25-1.92-1.93-2.36-2.49c-1.74-2.22-4.13-8.7-4.42-12.3c-1.15-14.23,6.84-27.25,14.27-38.7
			c7.3-11.25-10.05-25.12-18.85-14.54c-16.51,19.85-32.17,42.37-53.47,57.47c-9.55,6.77-20.23,12.23-31.88,14.16
			c-10.5,1.74-20.82-0.24-29.02-5.25c-16.1-9.83-25.25-30.87-20.98-49.21c2.1-9.04,7.12-18.19,13.32-22.67
			c1.71-1.23,3.62-2.39,5.57-3.19c-1.84,0.75,1.95-0.5,1.89-0.48c-0.21,0.05,3.6-0.63,1.97-0.44c-0.91,0.11,5.82,0.26,3.61-0.05
			c1.19,0.17,2.39,0.47,3.55,0.8c-0.01,0,3.51,1.19,1.74,0.47c4.72,1.94,6.59,3.46,9.81,6.89c2.55,2.72,4.92,6.93,5.96,10.59
			c2.78,9.79-0.67,21.6-5.92,31.4c-11.66,21.77-28.88,41.18-47.49,57.26c-33.46,28.9-86.2,55.87-126.61,27.36
			c-43.52-30.7-23.33-92.64-7.91-133.81c10.27-27.43,21.08-54.68,32.47-81.66c10.86-25.72,23.31-51.1,30.79-78.1
			c7.21-26.01,9.54-54.72-0.4-80.37c-8.59-22.14-24.02-40.59-43.96-53.45c-22.43-14.46-49.5-19.67-75.87-19.64
			c-26.83,0.03-54.5,3.91-80.53,10.31c-25.06,6.16-49.35,16.29-69.98,31.95c-18.69,14.19-34.22,31.6-47.44,50.95
			c-27.61,40.42-44.44,87.79-57.62,134.6C81.5,451.73,67.99,567.94,72.38,683.07c1.79,47.08,6.71,95.6,26.63,138.88
			c9.04,19.64,22,38.1,39.09,51.54c11.52,9.06,25.05,15.39,40,12.77c11.17-1.96,20.77-9.49,27.69-18.16
			c7.62-9.54,13.05-20.18,17.87-31.34c5.51-12.75,10.53-25.69,14.92-38.87c8.37-25.17,14.63-51.01,19.28-77.11
			c9.6-53.8,12.83-108.51,13.37-163.09c0.58-58.87-1.28-117.81-4.65-176.58c-1.6-27.94-3.17-55.99-6.15-83.82
			c-2.38-22.22-5.8-44.8-13.95-65.73c-7.77-19.96-19.55-38.65-38.24-49.99c-21.54-13.07-48.99-13.71-73.01-8.33
			c-42.1,9.43-77.7,40.12-99.24,76.73c-11.27,19.14-19.05,40.46-22.57,62.39c-1.03,6.39,1.65,12.91,8.38,14.76
			C27.53,328.7,35.54,325.18,36.57,318.74L36.57,318.74z"/>
	</g>
</g>
</svg>
